<mxfile host="app.diagrams.net" modified="2021-05-20T11:54:50.435Z" agent="5.0 (Windows NT 10.0; Win64; x64) AppleWebKit/537.36 (KHTML, like Gecko) Chrome/90.0.4430.212 Safari/537.36" etag="c-1rHsEt1FWHdLRg9HZm" version="14.6.13" type="github">
  <diagram id="WRmKUe25xSoSaRcBXLlW" name="Page-1">
    <mxGraphModel dx="2272" dy="739" grid="1" gridSize="10" guides="1" tooltips="1" connect="1" arrows="1" fold="1" page="1" pageScale="1" pageWidth="850" pageHeight="1100" math="0" shadow="0">
      <root>
        <mxCell id="0" />
        <mxCell id="1" parent="0" />
        <mxCell id="uoJQY8ojCWgneqbcl4rl-1" value="ome-activity-planning" style="rounded=0;whiteSpace=wrap;html=1;" vertex="1" parent="1">
          <mxGeometry x="70" y="260" width="270" height="60" as="geometry" />
        </mxCell>
        <mxCell id="uoJQY8ojCWgneqbcl4rl-2" value="attachment-ng" style="rounded=0;whiteSpace=wrap;html=1;" vertex="1" parent="1">
          <mxGeometry x="480" y="260" width="260" height="60" as="geometry" />
        </mxCell>
        <mxCell id="uoJQY8ojCWgneqbcl4rl-3" value="Google&lt;br&gt;storage" style="shape=cylinder3;whiteSpace=wrap;html=1;boundedLbl=1;backgroundOutline=1;size=15;" vertex="1" parent="1">
          <mxGeometry x="380" y="150" width="60" height="80" as="geometry" />
        </mxCell>
        <mxCell id="uoJQY8ojCWgneqbcl4rl-4" value="POST /business/v1/unbound&lt;br&gt;/attachments&lt;br&gt;&lt;br&gt;Response: id" style="text;html=1;strokeColor=none;fillColor=none;align=center;verticalAlign=middle;whiteSpace=wrap;rounded=0;" vertex="1" parent="1">
          <mxGeometry x="130" y="370" width="160" height="60" as="geometry" />
        </mxCell>
        <mxCell id="uoJQY8ojCWgneqbcl4rl-5" value="POST /business/v1/attachments&lt;br&gt;&lt;br&gt;Response: id" style="text;html=1;strokeColor=none;fillColor=none;align=center;verticalAlign=middle;whiteSpace=wrap;rounded=0;" vertex="1" parent="1">
          <mxGeometry x="525" y="370" width="160" height="60" as="geometry" />
        </mxCell>
        <mxCell id="uoJQY8ojCWgneqbcl4rl-6" value="" style="endArrow=classic;html=1;" edge="1" parent="1">
          <mxGeometry relative="1" as="geometry">
            <mxPoint x="340" y="390" as="sourcePoint" />
            <mxPoint x="480" y="390.5" as="targetPoint" />
          </mxGeometry>
        </mxCell>
        <mxCell id="uoJQY8ojCWgneqbcl4rl-7" value="1" style="edgeLabel;resizable=0;html=1;align=center;verticalAlign=middle;" connectable="0" vertex="1" parent="uoJQY8ojCWgneqbcl4rl-6">
          <mxGeometry relative="1" as="geometry" />
        </mxCell>
        <mxCell id="uoJQY8ojCWgneqbcl4rl-8" value="1" style="endArrow=classic;html=1;" edge="1" parent="1">
          <mxGeometry relative="1" as="geometry">
            <mxPoint x="480" y="410" as="sourcePoint" />
            <mxPoint x="340" y="410" as="targetPoint" />
          </mxGeometry>
        </mxCell>
        <mxCell id="uoJQY8ojCWgneqbcl4rl-9" value="2" style="edgeLabel;resizable=0;html=1;align=center;verticalAlign=middle;" connectable="0" vertex="1" parent="uoJQY8ojCWgneqbcl4rl-8">
          <mxGeometry relative="1" as="geometry" />
        </mxCell>
        <mxCell id="uoJQY8ojCWgneqbcl4rl-16" value="POST /business/v1/activity-list/attachments/{id}/upload" style="text;html=1;strokeColor=none;fillColor=none;align=center;verticalAlign=middle;whiteSpace=wrap;rounded=0;" vertex="1" parent="1">
          <mxGeometry x="140" y="500" width="160" height="60" as="geometry" />
        </mxCell>
        <mxCell id="uoJQY8ojCWgneqbcl4rl-17" value="" style="endArrow=classic;html=1;entryX=0;entryY=0.5;entryDx=0;entryDy=0;entryPerimeter=0;exitX=0;exitY=0;exitDx=0;exitDy=0;" edge="1" parent="1" source="uoJQY8ojCWgneqbcl4rl-16" target="uoJQY8ojCWgneqbcl4rl-3">
          <mxGeometry relative="1" as="geometry">
            <mxPoint x="120" y="565" as="sourcePoint" />
            <mxPoint x="40" y="195" as="targetPoint" />
            <Array as="points">
              <mxPoint x="30" y="500" />
              <mxPoint x="30" y="190" />
            </Array>
          </mxGeometry>
        </mxCell>
        <mxCell id="uoJQY8ojCWgneqbcl4rl-18" value="3" style="edgeLabel;resizable=0;html=1;align=center;verticalAlign=middle;" connectable="0" vertex="1" parent="uoJQY8ojCWgneqbcl4rl-17">
          <mxGeometry relative="1" as="geometry" />
        </mxCell>
        <mxCell id="uoJQY8ojCWgneqbcl4rl-19" value="" style="endArrow=classic;html=1;exitX=1;exitY=0.5;exitDx=0;exitDy=0;exitPerimeter=0;entryX=1;entryY=0.5;entryDx=0;entryDy=0;" edge="1" parent="1" source="uoJQY8ojCWgneqbcl4rl-3" target="uoJQY8ojCWgneqbcl4rl-22">
          <mxGeometry relative="1" as="geometry">
            <mxPoint x="80" y="169.5" as="sourcePoint" />
            <mxPoint x="770" y="350" as="targetPoint" />
            <Array as="points">
              <mxPoint x="770" y="190" />
              <mxPoint x="770" y="760" />
            </Array>
          </mxGeometry>
        </mxCell>
        <mxCell id="uoJQY8ojCWgneqbcl4rl-20" value="4" style="edgeLabel;resizable=0;html=1;align=center;verticalAlign=middle;" connectable="0" vertex="1" parent="uoJQY8ojCWgneqbcl4rl-19">
          <mxGeometry relative="1" as="geometry" />
        </mxCell>
        <mxCell id="uoJQY8ojCWgneqbcl4rl-21" style="edgeStyle=orthogonalEdgeStyle;rounded=0;orthogonalLoop=1;jettySize=auto;html=1;entryX=0.875;entryY=0.5;entryDx=0;entryDy=0;entryPerimeter=0;" edge="1" parent="1" source="uoJQY8ojCWgneqbcl4rl-22" target="uoJQY8ojCWgneqbcl4rl-28">
          <mxGeometry relative="1" as="geometry">
            <mxPoint x="600" y="840" as="targetPoint" />
            <Array as="points">
              <mxPoint x="600" y="930" />
            </Array>
          </mxGeometry>
        </mxCell>
        <mxCell id="uoJQY8ojCWgneqbcl4rl-22" value="CloudStorageMessageListener&lt;br&gt;&lt;br&gt;processUploadedAttachment" style="text;html=1;strokeColor=none;fillColor=none;align=center;verticalAlign=middle;whiteSpace=wrap;rounded=0;" vertex="1" parent="1">
          <mxGeometry x="525" y="730" width="160" height="60" as="geometry" />
        </mxCell>
        <mxCell id="uoJQY8ojCWgneqbcl4rl-37" style="edgeStyle=orthogonalEdgeStyle;rounded=0;orthogonalLoop=1;jettySize=auto;html=1;entryX=0;entryY=0.5;entryDx=0;entryDy=0;entryPerimeter=0;" edge="1" parent="1" source="uoJQY8ojCWgneqbcl4rl-23" target="uoJQY8ojCWgneqbcl4rl-24">
          <mxGeometry relative="1" as="geometry" />
        </mxCell>
        <mxCell id="uoJQY8ojCWgneqbcl4rl-23" value="AttachmentListner&lt;br&gt;&lt;br&gt;EVENT_TYPE_SUCCEEDED" style="text;html=1;strokeColor=none;fillColor=none;align=center;verticalAlign=middle;whiteSpace=wrap;rounded=0;" vertex="1" parent="1">
          <mxGeometry x="140" y="590" width="160" height="60" as="geometry" />
        </mxCell>
        <mxCell id="uoJQY8ojCWgneqbcl4rl-24" value="" style="shape=cylinder3;whiteSpace=wrap;html=1;boundedLbl=1;backgroundOutline=1;size=15;" vertex="1" parent="1">
          <mxGeometry x="65" y="880" width="60" height="80" as="geometry" />
        </mxCell>
        <mxCell id="uoJQY8ojCWgneqbcl4rl-27" style="edgeStyle=orthogonalEdgeStyle;rounded=0;orthogonalLoop=1;jettySize=auto;html=1;entryX=1;entryY=0.75;entryDx=0;entryDy=0;" edge="1" parent="1" source="uoJQY8ojCWgneqbcl4rl-28" target="uoJQY8ojCWgneqbcl4rl-23">
          <mxGeometry relative="1" as="geometry" />
        </mxCell>
        <mxCell id="uoJQY8ojCWgneqbcl4rl-28" value="KAFKA" style="ellipse;shape=cloud;whiteSpace=wrap;html=1;" vertex="1" parent="1">
          <mxGeometry x="340" y="890" width="120" height="80" as="geometry" />
        </mxCell>
        <mxCell id="uoJQY8ojCWgneqbcl4rl-29" value="EVENT_TYPE_SUCCEEDED" style="text;html=1;strokeColor=none;fillColor=none;align=center;verticalAlign=middle;whiteSpace=wrap;rounded=0;" vertex="1" parent="1">
          <mxGeometry x="500" y="860" width="40" height="20" as="geometry" />
        </mxCell>
        <mxCell id="uoJQY8ojCWgneqbcl4rl-30" value="AttachmentMetadataMessage" style="text;whiteSpace=wrap;html=1;" vertex="1" parent="1">
          <mxGeometry x="365" y="830" width="180" height="30" as="geometry" />
        </mxCell>
        <mxCell id="uoJQY8ojCWgneqbcl4rl-35" style="edgeStyle=orthogonalEdgeStyle;rounded=0;orthogonalLoop=1;jettySize=auto;html=1;entryX=1;entryY=0.5;entryDx=0;entryDy=0;entryPerimeter=0;" edge="1" parent="1" target="uoJQY8ojCWgneqbcl4rl-24">
          <mxGeometry relative="1" as="geometry">
            <mxPoint x="205" y="770" as="sourcePoint" />
            <Array as="points">
              <mxPoint x="205" y="725" />
              <mxPoint x="205" y="957" />
            </Array>
          </mxGeometry>
        </mxCell>
        <mxCell id="uoJQY8ojCWgneqbcl4rl-31" value="PUT /business/v1/unbound&lt;br&gt;/attachments/{attachmentId}" style="text;html=1;strokeColor=none;fillColor=none;align=center;verticalAlign=middle;whiteSpace=wrap;rounded=0;" vertex="1" parent="1">
          <mxGeometry x="125" y="670" width="160" height="90" as="geometry" />
        </mxCell>
        <mxCell id="uoJQY8ojCWgneqbcl4rl-38" value="5" style="text;html=1;align=center;verticalAlign=middle;resizable=0;points=[];autosize=1;strokeColor=none;" vertex="1" parent="1">
          <mxGeometry x="320" y="720" width="20" height="20" as="geometry" />
        </mxCell>
        <mxCell id="uoJQY8ojCWgneqbcl4rl-39" value="6" style="text;html=1;align=center;verticalAlign=middle;resizable=0;points=[];autosize=1;strokeColor=none;" vertex="1" parent="1">
          <mxGeometry x="30" y="750" width="20" height="20" as="geometry" />
        </mxCell>
        <mxCell id="uoJQY8ojCWgneqbcl4rl-40" value="7" style="text;html=1;align=center;verticalAlign=middle;resizable=0;points=[];autosize=1;strokeColor=none;" vertex="1" parent="1">
          <mxGeometry x="180" y="820" width="20" height="20" as="geometry" />
        </mxCell>
        <mxCell id="uoJQY8ojCWgneqbcl4rl-43" style="edgeStyle=orthogonalEdgeStyle;rounded=0;orthogonalLoop=1;jettySize=auto;html=1;exitX=1;exitY=0.3333333333333333;exitDx=0;exitDy=0;exitPerimeter=0;entryX=0;entryY=0.25;entryDx=0;entryDy=0;" edge="1" parent="1" source="uoJQY8ojCWgneqbcl4rl-41" target="uoJQY8ojCWgneqbcl4rl-4">
          <mxGeometry relative="1" as="geometry">
            <Array as="points">
              <mxPoint x="-70" y="385" />
            </Array>
          </mxGeometry>
        </mxCell>
        <mxCell id="uoJQY8ojCWgneqbcl4rl-44" style="edgeStyle=orthogonalEdgeStyle;rounded=0;orthogonalLoop=1;jettySize=auto;html=1;exitX=0.5;exitY=0.5;exitDx=0;exitDy=0;exitPerimeter=0;entryX=0;entryY=0.5;entryDx=0;entryDy=0;" edge="1" parent="1" source="uoJQY8ojCWgneqbcl4rl-41" target="uoJQY8ojCWgneqbcl4rl-16">
          <mxGeometry relative="1" as="geometry">
            <Array as="points">
              <mxPoint x="-30" y="500" />
              <mxPoint x="-30" y="530" />
            </Array>
          </mxGeometry>
        </mxCell>
        <mxCell id="uoJQY8ojCWgneqbcl4rl-45" style="edgeStyle=orthogonalEdgeStyle;rounded=0;orthogonalLoop=1;jettySize=auto;html=1;entryX=0;entryY=0.5;entryDx=0;entryDy=0;" edge="1" parent="1" source="uoJQY8ojCWgneqbcl4rl-41" target="uoJQY8ojCWgneqbcl4rl-31">
          <mxGeometry relative="1" as="geometry">
            <Array as="points">
              <mxPoint x="-85" y="715" />
            </Array>
          </mxGeometry>
        </mxCell>
        <mxCell id="uoJQY8ojCWgneqbcl4rl-41" value="Actor" style="shape=umlActor;verticalLabelPosition=bottom;verticalAlign=top;html=1;outlineConnect=0;" vertex="1" parent="1">
          <mxGeometry x="-100" y="470" width="30" height="60" as="geometry" />
        </mxCell>
      </root>
    </mxGraphModel>
  </diagram>
</mxfile>
